PathFileType	4	(X/Y/Z)	C:\Users\chris\Documents\GitHub\baseballds\vids\pitch5_Sports2D\pitch5_Sports2D_m_person04.trc
DataRate	CameraRate	NumFrames	NumMarkers	Units	OrigDataRate	OrigDataStartFrame	OrigNumFrames
30	30	8	22	m	30	55	149
Frame#	Time	Hip			RHip			RKnee			RAnkle			RBigToe			RSmallToe			RHeel			LHip			LKnee			LAnkle			LBigToe			LSmallToe			LHeel			Neck			Head			Nose			RShoulder			RElbow			RWrist			LShoulder			LElbow			LWrist		
		X1	Y1	Z1	X2	Y2	Z2	X3	Y3	Z3	X4	Y4	Z4	X5	Y5	Z5	X6	Y6	Z6	X7	Y7	Z7	X8	Y8	Z8	X9	Y9	Z9	X10	Y10	Z10	X11	Y11	Z11	X12	Y12	Z12	X13	Y13	Z13	X14	Y14	Z14	X15	Y15	Z15	X16	Y16	Z16	X17	Y17	Z17	X18	Y18	Z18	X19	Y19	Z19	X20	Y20	Z20	X21	Y21	Z21	X22	Y22	Z22
55	1.8333333333333333	2.6516674649431016	1.303272246846468	0.0	2.6452501851532237	1.302032775904868	0.0	2.6424754345479697	1.2790123778765514	0.0	2.6425205697848124	1.2555069576393385	0.0	2.637110123586275	1.2500839785410331	0.0	2.6350696094142174	1.2502985779944082	0.0	2.6447958145653927	1.252739026401955	0.0	2.658373908856121	1.3020959610998049	0.0	2.659677441322705	1.277802327281282	0.0	2.663700240104165	1.2537684534017253	0.0	2.6582265016702027	1.2498835589315023	0.0	2.663650414383201	1.2555983315850858	0.0	2.6648028422552836	1.252680619608171	0.0	2.6560286014193046	1.3404662881318576	0.0	2.657315364931548	1.3592424258005948	0.0	2.6553864491204355	1.3477845795161427	0.0	2.647798589622175	1.3377356716056767	0.0	2.6384753385969626	1.3277558255000117	0.0	2.6288770775305617	1.3286722746153332	0.0	2.6622494530054706	1.3380585034389816	0.0	2.656223262473909	1.3300513989243408	0.0	2.631251129274311	1.329845699072059	0.0
56	1.8666666666666667	2.6579302340781448	1.297801246793157	0.0	2.651591296326925	1.2965034827618422	0.0	2.6484692859145023	1.2750651546126341	0.0	2.6519359170038705	1.251745282508185	0.0	2.6468692369512103	1.2454810534516054	0.0	2.6450271293181853	1.2457751760517681	0.0	2.655108284877049	1.2483511011561665	0.0	2.664722937658331	1.296773826624592	0.0	2.6659462545418586	1.2730587231321238	0.0	2.6689782727833053	1.2483679848492588	0.0	2.6625364972200263	1.2441613135618699	0.0	2.664360970958403	1.2508742578866328	0.0	2.6709190653107937	1.2474175443033497	0.0	2.662229522427908	1.3349872786956325	0.0	2.661326040334759	1.3545844270126262	0.0	2.6603602715698256	1.3431104727398566	0.0	2.654522652617573	1.3322677115401997	0.0	2.6479524258039646	1.320404629972515	0.0	2.639090436857241	1.3163178976837078	0.0	2.668597554650658	1.3327378516599333	0.0	2.66178632355307	1.3212839285080187	0.0	2.6410146230804354	1.3168812564066628	0.0
57	1.9	2.6627036074537487	1.2939470148168293	0.0	2.656408726390975	1.2927276896846478	0.0	2.653288759542185	1.2721189474129555	0.0	2.6590413185849364	1.248680834060598	0.0	2.6532558456996003	1.241935697366765	0.0	2.6523130272987943	1.24270214988795	0.0	2.6630069239032452	1.2449990758297143	0.0	2.6695830553506004	1.2931357656923208	0.0	2.670812056116346	1.2695040409466964	0.0	2.673047179993497	1.2447924904238181	0.0	2.6669487336840683	1.24037494363256	0.0	2.6664764130381293	1.2445185315209577	0.0	2.67546292543943	1.2438734671522511	0.0	2.6668184925493628	1.331277480292897	0.0	2.6643531927913755	1.3510541483983391	0.0	2.663948826828792	1.339729418932043	0.0	2.659289158548413	1.328012216491993	0.0	2.654698331758483	1.3143651836408512	0.0	2.64719504978265	1.3062035201601399	0.0	2.6733889601664425	1.328900350189406	0.0	2.6667299493532535	1.314382548319225	0.0	2.6494988989129427	1.3057533143388433	0.0
58	1.9333333333333333	2.6647591430354147	1.2930158778355012	0.0	2.658691393795673	1.2919432520932674	0.0	2.65595643959795	1.2709711737524567	0.0	2.6616713826611647	1.2473482708112316	0.0	2.6550039000610193	1.2407198036373823	0.0	2.6548349465975942	1.241885341632633	0.0	2.6658847524390463	1.2436818421044888	0.0	2.6713837723836718	1.2923512760958031	0.0	2.6726819995348152	1.2685327168186258	0.0	2.6746897335168502	1.2443883448283957	0.0	2.669358696308852	1.239930013221333	0.0	2.6693853802745457	1.2408607669329117	0.0	2.67711604464488	1.2433971846594736	0.0	2.6684023988021526	1.3304192266132415	0.0	2.665574198687558	1.3494575011271925	0.0	2.664987484021861	1.3385831766026193	0.0	2.6608415403442156	1.3260892702831022	0.0	2.6571721882218586	1.311757227470588	0.0	2.651120709915451	1.3013632089392002	0.0	2.67517409287399	1.3274883777565238	0.0	2.6702018182248914	1.3115988501080063	0.0	2.655007578543558	1.3000521043792772	0.0
59	1.9666666666666666	2.6656129651557037	1.293227234639163	0.0	2.6599190854201473	1.292171076638755	0.0	2.6580936377729265	1.2703966872311194	0.0	2.662375984514814	1.247083473797737	0.0	2.6557891894580052	1.2409554029107528	0.0	2.65524678631031	1.2421088135773402	0.0	2.6663553739769834	1.2434601182999183	0.0	2.671660127103635	1.2925180010774033	0.0	2.6730199195212117	1.2688906588472386	0.0	2.6752385967917274	1.2453173020778379	0.0	2.6696504633371294	1.2410420224616923	0.0	2.671286517832131	1.2408510677842117	0.0	2.677582358479854	1.2442002983620732	0.0	2.6685839340244923	1.3304276305153913	0.0	2.6659092967388096	1.3487301238970621	0.0	2.664948167376837	1.338305463511314	0.0	2.6609944924739817	1.3251834973282903	0.0	2.6579941410878356	1.3110565839572101	0.0	2.652852517022287	1.2991672805271393	0.0	2.6757075179628576	1.3268491370366926	0.0	2.6735180145654236	1.3107677267086395	0.0	2.659775612331394	1.2974319270367047	0.0
60	2.0	2.666239299033217	1.2926610490803074	0.0	2.6606771014449246	1.2914478816634476	0.0	2.660496207563278	1.2690572489502314	0.0	2.6634861453135876	1.2467536605526577	0.0	2.657386645706218	1.2412581533953866	0.0	2.6557127452333424	1.2423020220376555	0.0	2.6670322914478986	1.2433751083871203	0.0	2.671969248534576	1.2917606410716886	0.0	2.6733503958278453	1.2685906707708376	0.0	2.6758966555003014	1.2454626011003145	0.0	2.6699024760720804	1.2416604984968684	0.0	2.671447105032335	1.2417769095853568	0.0	2.6781873098762663	1.2443356897303977	0.0	2.6686210359673885	1.3298080455104724	0.0	2.6661220645403496	1.3480158666125055	0.0	2.665107897203728	1.3377610389519232	0.0	2.6608552393180944	1.3243203223266238	0.0	2.6582411682587876	1.3103498296252711	0.0	2.653505094228828	1.2970202795883659	0.0	2.6764717048990225	1.3259083647695744	0.0	2.6771761818724564	1.3095381060443319	0.0	2.6661730350129726	1.2949809119159723	0.0
61	2.033333333333333	2.6665925554325995	1.2909841242932416	0.0	2.660723184671059	1.2895827156797957	0.0	2.662516591407383	1.26689695983094	0.0	2.665016142670185	1.2457397591652342	0.0	2.659192623106283	1.2407776713627243	0.0	2.656543076923982	1.2419154482154269	0.0	2.6682009969576503	1.2429649160209415	0.0	2.6725659878310637	1.2899147324691576	0.0	2.6738992347760164	1.2669949621403604	0.0	2.676653511692576	1.2443026988285848	0.0	2.671375770530917	1.2409963114194382	0.0	2.6712912620536615	1.2416392065117778	0.0	2.6787786981026125	1.2433470542423397	0.0	2.6684944155726265	1.3287374005976704	0.0	2.666300848037782	1.347117949633654	0.0	2.6654146996921892	1.3368518579587705	0.0	2.660320037078744	1.3234624913700572	0.0	2.657161642874753	1.30911543703045	0.0	2.652823147601609	1.2946161719490932	0.0	2.677330602869017	1.3248165833691614	0.0	2.6804093705370757	1.3077074770649206	0.0	2.6743832012198037	1.292218745717444	0.0
62	2.0666666666666664	2.666804465233118	1.2890190313383334	0.0	2.660476760288063	1.2874723522646376	0.0	2.663841320850646	1.264886046502092	0.0	2.66634646831628	1.2441966944824059	0.0	2.661204098243237	1.2394808950728886	0.0	2.6577879538884646	1.240605150975911	0.0	2.66946556943989	1.2419241069714952	0.0	2.67319546563751	1.2878960971824878	0.0	2.6744340258895747	1.2651038136870885	0.0	2.6772198330934116	1.2426076084148796	0.0	2.672713635302509	1.2393843665608089	0.0	2.671997581865737	1.2404794409733624	0.0	2.679159107355311	1.241794869059228	0.0	2.6681762218216067	1.3276795154081755	0.0	2.6664427827836334	1.3462259301880835	0.0	2.665615220331321	1.3358816362189563	0.0	2.6595555290121777	1.322559307554531	0.0	2.6551663424419165	1.3076245645999436	0.0	2.651237448730931	1.2923587381586292	0.0	2.6778371054584675	1.323731210253295	0.0	2.682838179051643	1.3061862761275196	0.0	2.68238817145614	1.28996720328625	0.0
